<svg width="72" height="12" viewBox="0 0 72 12" fill="none" xmlns="http://www.w3.org/2000/svg">
<g id="Frame 2469">
<g id="Group 8">
<path id="Vector" d="M5.58686 4.58949C5.36143 5.68377 5.28394 5.75187 4.27419 5.76126C3.22453 5.76831 2.3909 7.11385 2.84881 8.09776C2.92395 8.25979 3.15173 8.46174 3.30906 8.45939C4.07224 8.45 4.83542 8.3772 5.59626 8.33259C5.74185 8.32319 5.92266 8.29267 6.02364 8.36312C6.09643 8.41478 6.12226 8.68248 6.05886 8.74119C5.75359 9.03707 5.43423 9.49732 5.08199 9.53254C3.99006 9.64291 2.88168 9.5983 1.77801 9.5936C1.12285 9.5936 0.883327 9.15447 0.998391 8.60498C1.20738 7.59524 1.56901 6.61368 1.74983 5.59923C1.94708 4.47912 2.13964 3.33083 2.09972 2.20367C2.0598 1.05773 2.15608 0.834642 3.31611 0.820552C4.13095 0.811159 4.94344 0.707837 5.75828 0.644434C5.82873 0.639738 5.89918 0.618602 5.96728 0.627995C8.22394 0.912132 10.4783 0.496498 12.7349 0.611562C14.3035 0.691403 14.4233 0.836992 14.1251 2.35631C13.7024 4.5026 13.1294 6.62776 13.1012 8.83981C13.0919 9.50671 12.7889 9.657 11.9694 9.57951C11.2861 9.51376 11.3471 9.08168 11.434 8.61203C11.7792 6.77335 12.1361 4.93938 12.4625 3.09835C12.6574 1.98998 12.3169 1.56964 11.4176 1.79742C11.1686 1.86083 10.861 2.10739 10.7765 2.33987C10.5816 2.87996 10.5017 3.46467 10.382 4.03295C10.3491 4.19263 10.382 4.3805 10.3092 4.51434C9.56479 5.88102 9.58123 7.39564 9.48495 8.87738C9.43329 9.68518 8.89084 9.58655 8.38597 9.59594C7.79186 9.60769 7.65801 9.18265 7.74255 8.73649C7.95389 7.61168 8.2075 6.49391 8.48225 5.38319C8.68889 4.54487 8.99417 3.73003 9.17263 2.88701C9.23604 2.58644 9.15619 2.13322 8.95894 1.93832C8.80161 1.78334 8.35544 1.95006 8.04548 1.91249C7.68385 1.87022 7.27525 1.60957 6.98876 1.71993C6.64827 1.84909 6.48389 2.16844 5.97197 1.95006C5.4671 1.73637 4.82603 1.78568 4.24836 1.81856C3.81629 1.84439 3.40769 3.15236 3.63547 3.98364C3.69887 4.21142 4.17791 4.35466 4.49258 4.47442C4.67809 4.54487 4.91057 4.48147 5.12191 4.49791C5.27689 4.512 5.42953 4.55896 5.58217 4.58949H5.58686Z" fill="#037112"/>
<path id="Vector_2" d="M65.7348 7.82961C65.8523 8.43311 65.2206 9.34658 64.5513 9.54148C64.0277 9.69412 63.5205 9.72229 63.1541 9.10471C62.816 8.53408 62.7056 8.09027 63.0203 7.42806C63.3068 6.81987 63.2833 6.06608 63.3866 5.37335C63.5275 4.4317 63.7036 3.49475 63.7764 2.54841C63.8234 1.93552 64.2038 1.8909 64.6335 1.86976C65.122 1.84628 65.291 2.16094 65.2769 2.59537C65.2699 2.82785 65.183 3.06502 65.2088 3.29045C65.2417 3.58868 65.338 4.12408 65.4249 4.12877C65.7771 4.14286 66.1411 4.00901 66.4886 3.89395C66.6084 3.85403 66.6765 3.68731 66.7939 3.61921C67.6745 3.0885 68.4729 3.55346 68.5621 4.67592C68.6068 5.2348 68.534 5.80307 68.5856 6.35961C68.6185 6.72593 68.7782 7.08052 68.9402 7.6394C69.9335 6.47937 70.5863 5.44144 70.5581 4.09825C70.5488 3.67321 70.5229 3.26227 71.1217 3.27167C71.6736 3.28106 71.9929 3.63565 71.9295 4.12643C71.8544 4.71584 71.7135 5.34517 71.4129 5.84769C70.746 6.96311 70.011 8.05034 69.2126 9.07418C68.3649 10.1638 67.6322 11.4083 66.1951 11.8827C65.3897 12.148 64.9106 11.8921 65.0351 11.197C65.0726 10.981 65.3098 10.7532 65.5141 10.624C65.7231 10.4925 66.0025 10.4761 66.2515 10.4127C67.2753 10.1591 67.7074 9.52974 67.5547 8.48947C67.4021 7.43041 67.2307 6.3737 67.0898 5.31229C67.0217 4.80507 66.7798 4.64069 66.2773 4.71819C64.9388 4.92248 64.9294 4.90839 64.6335 6.31734C64.5255 6.83395 64.4269 7.35996 64.3987 7.88597C64.3893 8.06208 64.5795 8.35092 64.7392 8.40493C64.8707 8.44955 65.0961 8.22881 65.2793 8.11845C65.4225 8.03391 65.5611 7.93998 65.7325 7.83196L65.7348 7.82961Z" fill="#037112"/>
<path id="Vector_3" d="M39.6248 8.49418C40.0005 8.17951 40.2588 7.96582 40.5852 7.69343C40.7519 8.23117 40.766 8.66326 40.2189 8.94739C39.7797 9.17517 39.3524 9.47105 38.8827 9.57202C38.6408 9.62368 38.3285 9.29728 38.0326 9.17752C37.8283 9.09533 37.5841 9.0061 37.3869 9.05072C37.1755 9.09768 37.0065 9.31372 36.8045 9.42878C35.9873 9.88434 35.257 9.52271 35.2993 8.61629C35.3369 7.83902 35.5529 7.07115 35.6867 6.29857C35.7548 5.91111 35.884 5.51895 35.8605 5.13619C35.8347 4.73464 35.4707 4.67359 35.2758 4.96947C34.6441 5.93225 34.0641 6.93025 33.4911 7.9306C33.2845 8.29458 33.1647 8.70552 32.991 9.09063C32.7796 9.56028 32.3405 9.68709 31.9389 9.52271C31.7652 9.44991 31.636 8.97087 31.6806 8.71022C31.8732 7.60889 32.1503 6.52166 32.3734 5.42503C32.4556 5.01643 32.4978 4.59609 32.5237 4.18045C32.5589 3.61452 32.8689 3.28108 33.4043 3.29752C33.9373 3.31161 34.0665 3.71315 34.0242 4.20394C34.0054 4.44111 34.0759 4.68298 34.1322 5.15263C34.4938 4.77221 34.6864 4.5233 34.9236 4.32839C35.311 4.00668 35.6938 3.64975 36.1423 3.43371C36.8139 3.112 37.4198 3.5112 37.354 4.25325C37.2859 5.03521 37.0511 5.80074 36.9149 6.57801C36.8186 7.12515 36.7693 7.67934 36.6824 8.37207C37.8871 7.85311 38.2275 7.03358 38.3332 6.0567C38.4013 5.42972 38.4765 4.80509 38.5399 4.17811C38.6033 3.53469 39.0941 3.58635 39.5355 3.55582C40.0451 3.51825 40.1508 3.8611 40.085 4.23681C39.977 4.86614 39.8596 5.50486 39.6435 6.10132C39.3641 6.86684 39.4651 7.58776 39.6224 8.49653L39.6248 8.49418Z" fill="#037112"/>
<path id="Vector_4" d="M24.6195 7.52198C24.8708 6.08486 25.1291 4.64773 25.3686 3.20826C25.4673 2.61415 25.5823 2.013 25.58 1.41654C25.58 0.674498 26.1318 0.672149 26.5827 0.608746C27.0688 0.540647 27.4093 0.796602 27.3529 1.34609C27.3106 1.76173 27.2355 2.17503 27.1509 2.58362C26.8128 4.22739 26.4418 5.86412 26.1318 7.51259C26.0543 7.93057 26.0801 8.35091 26.6578 8.58339C27.2472 8.82056 27.4727 8.48711 27.8531 8.20062C28.844 7.45857 29.1493 6.46996 29.2714 5.29584C29.3583 4.45282 29.7317 3.64268 29.9289 2.8067C30.051 2.29243 30.0651 1.75469 30.1637 1.23572C30.2647 0.709717 30.8353 0.399753 31.413 0.667453C31.6361 0.770775 31.8333 1.28504 31.7793 1.56213C31.6431 2.26426 31.3308 2.93116 31.1383 3.62624C31.0044 4.11703 30.9481 4.63129 30.8635 5.13381C30.7203 5.98623 30.5512 6.83864 30.4526 7.69575C30.4174 8.00102 30.5371 8.32978 30.6123 8.63975C30.7273 9.11175 30.7414 9.51799 30.1896 9.74342C29.6777 9.95241 29.4029 9.74577 29.201 9.28552C28.9685 8.75716 28.581 8.81821 28.1536 9.05538C27.7521 9.27847 27.3458 9.4992 26.9279 9.68941C25.9252 10.1473 24.7839 9.4405 24.6876 8.30629C24.6665 8.05034 24.6853 7.79203 24.6853 7.53372C24.6618 7.52902 24.6407 7.52668 24.6172 7.52198H24.6195Z" fill="#037112"/>
<path id="Vector_5" d="M19.9489 7.61362C20.0991 8.60223 19.4863 9.33489 18.5657 9.56267C18.1853 9.6566 17.8073 9.76227 17.4315 9.87264C16.3654 10.1873 14.9471 9.22217 14.6465 8.16076C14.1604 6.44655 14.569 4.88731 15.2852 3.37269C15.8183 2.24553 16.7318 1.31093 17.8026 0.82484C18.5587 0.481996 19.6483 0.648728 20.5242 0.86007C21.2474 1.03384 21.2287 2.36529 20.5758 2.8138C20.1602 3.10264 19.977 2.75745 19.9183 2.4874C19.8009 1.94731 19.5614 1.66787 18.9743 1.67491C18.3521 1.68196 17.8495 1.71718 17.401 2.32537C16.3326 3.77659 15.9991 5.38279 16.194 7.10405C16.2504 7.59719 16.5439 8.2547 16.9337 8.47073C17.5583 8.82062 18.338 8.78539 18.9837 8.26643C19.2538 8.04804 19.5591 7.87193 19.9489 7.61128V7.61362Z" fill="#037112"/>
<path id="Vector_6" d="M46.3008 7.55486C45.9063 6.59442 46.3736 5.79368 46.8738 5.12208C47.5524 4.21331 48.426 3.39612 49.6611 3.37029C50.0791 3.3609 50.6075 3.63798 50.901 3.95265C51.218 4.29314 50.9127 5.53302 50.5065 5.82655C49.795 6.33847 49.1797 7.01476 48.2123 7.12278C48.0127 7.14391 47.7097 7.58774 47.7262 7.81552C47.7473 8.08322 48.0174 8.47772 48.2639 8.55521C48.8439 8.74072 49.4592 8.72428 50.0063 8.32039C50.1378 8.22411 50.3773 8.27107 50.5676 8.25229C50.5276 8.44015 50.5441 8.67732 50.436 8.80648C49.6165 9.7716 47.5031 9.96181 46.6248 9.06008C46.2914 8.71959 46.2562 8.08791 46.0871 7.59009C46.1575 7.57834 46.2303 7.5666 46.3008 7.55721V7.55486ZM47.968 5.65513C47.9751 5.99562 48.1817 6.32673 48.5481 6.04024C48.9261 5.74436 49.1563 5.25123 49.4099 4.81915C49.438 4.76984 49.1938 4.45048 49.0647 4.44109C48.6913 4.41761 47.9892 5.20426 47.968 5.65513Z" fill="#037112"/>
<path id="Vector_7" d="M43.3889 7.49613C43.6942 7.14155 44.1451 6.83158 44.2766 6.42064C44.5325 5.61754 45.1853 4.93655 45.0351 3.99021C44.9975 3.75538 45.1642 3.37967 45.3591 3.25286C45.5188 3.14719 45.9744 3.22703 46.0894 3.38201C46.2726 3.62858 46.4182 4.03952 46.343 4.31662C46.0589 5.35219 45.4343 6.22574 44.9083 7.15329C44.4269 8.00101 43.8093 8.63269 43.0743 9.20096C42.8747 9.35595 42.6375 9.47806 42.3956 9.5532C42.0528 9.66122 41.879 9.50858 41.8555 9.13286C41.7898 8.01745 41.7334 6.89733 41.6019 5.78896C41.5479 5.33575 41.2732 4.91307 41.1839 4.45985C41.137 4.22503 41.2027 3.79765 41.3483 3.7272C41.7193 3.54639 42.25 3.10492 42.5459 3.76243C42.8089 4.34714 42.9451 4.99995 43.0531 5.63633C43.1541 6.23748 43.1424 6.85741 43.1823 7.46796C43.2504 7.47735 43.3185 7.48909 43.3866 7.49849L43.3889 7.49613Z" fill="#037112"/>
<path id="Vector_8" d="M56.5157 9.59074C55.884 9.64944 55.3298 9.38174 55.0551 8.72658C54.9682 8.51994 55.1114 8.21701 55.1467 7.9587C55.3533 8.06437 55.5928 8.13247 55.7619 8.28276C56.1047 8.58569 56.3912 9.04829 56.9337 8.77589C57.3822 8.55281 57.5325 8.11604 57.408 7.63699C57.3587 7.45148 57.2014 7.28241 57.0652 7.13212C56.349 6.3572 56.1141 5.223 56.5626 4.34006C57.0276 3.42189 57.8988 3.24578 58.8264 3.21525C59.2021 3.20351 59.5003 3.29509 59.4463 3.75769C59.3923 4.225 59.1222 4.11698 58.7817 4.05123C58.5704 4.00896 58.1289 4.19212 58.1031 4.33301C58.035 4.69229 58.0045 5.19951 58.2041 5.44138C58.6831 6.01905 58.9109 6.59672 58.8851 7.35286C58.8404 8.7031 57.9458 9.62361 56.5157 9.59074Z" fill="#037112"/>
<path id="Vector_9" d="M52.3545 9.56729C51.6242 9.61191 51.4716 9.4311 51.5655 8.90744C51.8426 7.3529 52.0539 5.78662 52.3169 4.22738C52.3498 4.03718 52.5189 3.75304 52.6645 3.72721C52.9016 3.68494 53.268 3.7366 53.4018 3.89628C53.7118 4.26496 53.8762 4.22034 54.2542 3.95734C54.5783 3.73191 55.0667 3.71781 55.4871 3.6685C55.5763 3.65911 55.8064 3.94324 55.7782 4.02543C55.6914 4.28844 55.5176 4.72521 55.365 4.72991C53.8198 4.78157 53.43 5.87351 53.1576 7.07581C53.0026 7.7568 52.9298 8.45892 52.749 9.13522C52.6903 9.35125 52.4109 9.50859 52.3545 9.56729Z" fill="#037112"/>
<path id="Vector_10" d="M61.7594 8.61628C61.8486 8.39554 61.8979 8.14428 62.0411 7.97051C62.1186 7.87658 62.3582 7.9165 62.5225 7.89537C62.5061 8.04331 62.5437 8.2429 62.4638 8.33214C62.1022 8.72899 61.75 9.16342 61.3061 9.44521C61.0643 9.59785 60.449 9.60019 60.3434 9.44521C60.0498 9.00374 59.754 8.43312 59.7892 7.93529C59.8573 6.99129 60.1579 6.06373 60.3504 5.12678C60.3974 4.899 60.442 4.65949 60.4138 4.43405C60.3457 3.87752 60.5312 3.62156 61.1253 3.60277C61.71 3.58399 61.9918 3.80707 61.9049 4.373C61.7828 5.1714 61.5856 5.95806 61.4564 6.75411C61.3719 7.27777 61.3508 7.81083 61.2991 8.33918C61.4517 8.43311 61.6044 8.52469 61.757 8.61862L61.7594 8.61628Z" fill="#037112"/>
<path id="Vector_11" d="M60.7965 2.42397C60.7872 1.07372 61.4282 0.451438 62.4896 0.683915C62.6517 0.719138 62.9053 1.08076 62.8607 1.17235C62.5859 1.75236 62.2759 2.32533 61.8932 2.83725C61.7828 2.98284 61.3484 3.00163 61.13 2.9124C60.9445 2.83725 60.8576 2.52259 60.7965 2.42161V2.42397Z" fill="#037112"/>
<path id="Vector_12" d="M39.1574 2.02C39.2326 0.735511 39.559 0.399712 40.611 0.662715C40.7777 0.704984 41.0337 1.05017 40.9914 1.15584C40.7871 1.69124 40.5476 2.22664 40.2165 2.6916C40.0826 2.87946 39.6858 2.8818 39.4087 2.96869C39.3242 2.65402 39.2396 2.33701 39.1551 2.02234L39.1574 2.02Z" fill="#037112"/>
<path id="Vector_13" d="M22.8066 5.48375C22.8771 5.48375 22.9522 5.46496 23.0156 5.48609C23.2927 5.58472 23.5674 5.69508 23.8422 5.80075C23.5815 6.08724 23.3725 6.4794 23.0508 6.63673C22.6704 6.82224 22.1914 6.83868 21.7522 6.86217C21.5339 6.87391 21.1347 6.75884 21.1206 6.66021C21.0877 6.41834 21.1511 6.01445 21.3178 5.92052C21.7616 5.66691 22.2783 5.5401 22.7643 5.36163C22.7784 5.40155 22.7949 5.44383 22.809 5.48375H22.8066Z" fill="#037112"/>
<path id="Vector_14" d="M47.9681 5.6551C47.9892 5.20424 48.6913 4.41758 49.0647 4.44107C49.1939 4.45046 49.4381 4.76982 49.4099 4.81913C49.1586 5.25121 48.9262 5.74434 48.5481 6.04022C48.1794 6.32905 47.9728 5.9956 47.9681 5.6551Z" fill="#037112"/>
</g>
</g>
</svg>
