<svg width="49" height="64" viewBox="0 0 49 64" fill="none" xmlns="http://www.w3.org/2000/svg">
<path id="Vector" d="M43.1867 9.24672C43.5345 9.63542 43.896 10.015 44.2287 10.4158C45.1211 11.4912 45.9983 12.5787 46.8861 13.6585C47.3247 14.1924 47.7845 14.7097 48.2065 15.2572C48.3124 15.3948 48.3487 15.6172 48.3502 15.8017C48.3744 19.6085 48.4001 23.4139 48.4031 27.2207C48.4092 34.3353 48.3971 41.4499 48.4031 48.5644C48.4031 49.3887 48.1808 50.0633 47.5682 50.6713C46.9632 51.2702 46.4899 52.0037 45.962 52.6813C45.7593 52.9415 45.5264 53.188 45.3782 53.4769C44.5857 55.012 43.8204 56.5608 43.0369 58.102C42.4183 59.3195 41.774 60.5234 41.169 61.747C40.9029 62.2854 40.6805 62.8495 40.4884 63.4182C40.3932 63.698 40.2434 63.819 39.9727 63.8266C39.7156 63.8341 39.4585 63.8326 39.2013 63.8326C26.9369 63.8326 14.6724 63.8326 2.40791 63.8326C1.92393 63.8326 1.43843 63.8145 0.955958 63.8387C0.583895 63.8583 0.496173 63.7026 0.503735 63.3592C0.527934 62.2415 0.530959 61.1238 0.532471 60.0061C0.532471 41.1685 0.532471 22.3325 0.532471 3.49486C0.532471 2.60403 0.515834 1.71319 0.515834 0.820847C0.51281 0.178054 0.680692 0.0147095 1.31895 0.0147095C15.3212 0.0283215 29.3235 0.0419336 43.3258 0.0570581C43.9746 0.0570581 44.622 0.0615955 45.2708 0.0691578C45.3994 0.0706702 45.5279 0.103944 45.717 0.132681C45.5869 0.518356 45.5052 0.869245 45.357 1.18837C44.7505 2.49513 44.1244 3.79282 43.5028 5.09352C42.7238 6.72244 41.9419 8.34832 41.1675 9.97875C40.9936 10.3448 40.8151 10.7123 40.6941 11.0964C40.5762 11.473 40.3432 11.5789 39.9833 11.5774C36.792 11.5683 33.6022 11.5653 30.411 11.5608C29.5005 11.5608 29.3553 11.6999 29.3568 12.6089C29.3659 17.0192 29.3734 21.431 29.3886 25.8413C29.3916 26.9606 29.4007 26.9636 30.5199 26.9802C31.2761 26.9923 32.0323 26.9802 32.787 27.0029C32.9307 27.0074 33.0699 27.1179 33.212 27.1784C33.1379 27.2963 33.0547 27.4113 32.9912 27.5353C32.8158 27.8832 32.6373 28.2295 32.4785 28.5849C32.1972 29.2111 31.9416 29.8478 31.6497 30.4694C31.5241 30.7387 31.3169 30.9686 31.1778 31.2317C30.4911 32.5324 29.7894 33.8256 29.1511 35.149C28.9348 35.5982 28.7851 36.129 28.7836 36.6236C28.7563 41.8507 28.7639 47.0762 28.7639 52.3032C28.7639 52.9642 28.7669 52.9672 29.4112 52.9672C32.3303 52.9717 35.2478 52.9778 38.1668 52.9657C38.365 52.9657 38.6069 52.8568 38.7521 52.7191C39.2815 52.2155 39.7806 51.6786 40.2888 51.1522C41.2174 50.1903 42.1537 49.2344 43.0641 48.2544C43.1867 48.1228 43.2139 47.8657 43.2154 47.666C43.2305 46.1853 43.232 44.7047 43.232 43.2255C43.232 37.7277 43.2532 32.2284 43.226 26.7307C43.1972 21.2193 43.1201 15.7064 43.0657 10.195C43.0626 9.89556 43.0657 9.5961 43.0657 9.29663C43.1065 9.2815 43.1473 9.26638 43.1897 9.25126L43.1867 9.24672ZM11.1559 32.2526C11.1559 38.1754 11.1559 44.0966 11.1559 50.0194C11.1559 50.7287 11.1665 51.4396 11.1892 52.1489C11.2089 52.7524 11.28 52.8159 11.8925 52.8174C15.1292 52.819 18.3658 52.8174 21.6024 52.8144C22.2936 52.8144 22.401 52.7176 22.4025 52.0325C22.4101 47.545 22.4116 43.0591 22.4116 38.5717C22.4116 38.0272 22.3163 37.9395 21.7749 37.9379C20.4137 37.9334 19.0525 37.9334 17.6912 37.9349C16.7036 37.9349 16.7308 37.9379 16.7384 36.9518C16.7581 33.8694 16.7611 30.7886 16.7565 27.7062C16.7565 27.0453 16.7354 27.0407 17.3963 27.0392C18.8483 27.0362 20.2987 27.0316 21.7507 27.0286C22.3012 27.0286 22.4131 26.9182 22.4131 26.3662C22.4131 21.6987 22.4101 17.0298 22.4056 12.3624C22.4056 11.4972 22.3178 11.4156 21.4406 11.3914C21.3196 11.3884 21.1986 11.3929 21.0776 11.3914C20.1399 11.3884 19.2022 11.3959 18.266 11.3808C16.3164 11.3505 14.3669 11.2961 12.4158 11.2764C11.6823 11.2689 11.1922 11.8058 11.1862 12.5393C11.1801 13.3243 11.159 14.1093 11.1575 14.8957C11.1544 20.6824 11.1575 26.4675 11.1575 32.2541L11.1559 32.2526Z" fill="#037112"/>
</svg>
